# xmcd
#
# Track frame offsets:
#	150
#	17137
#	50902
#	83100
#	108981
#
# Disc length: 1931 seconds
#
# Revision: 1
# Processed by: cddbd v1.5.2PL0 Copyright (c) Steve Scherf et al.
# Submitted via: EasyCDDAExtractor 10.2.0.1
#
DISCID=3a078905
DTITLE=Warp Brothers - We will survive CDM
DYEAR=2000
DGENRE=Techno
TTITLE0=We will survive (Single Mix)
TTITLE1=We will survive (Club Mix Short Mix) 
TTITLE2=We will survive (D.O.N.S. Remix)
TTITLE3=We will survive (Aquagen Remix)
TTITLE4=We will survive (Club Mix Long Break)
EXTD=
EXTT0=We Will Survive (Single Mix)
EXTT1=We Will Survive (Club Mix Short Mix) 
EXTT2=We Will Survive (D.O.N.S. Remix)
EXTT3=We Will Survive (Aquagen Remix)
EXTT4=We Will Survive (Club Mix Long Break)
PLAYORDER=
